# xmcd
#
# Track frame offsets:
#	150
#	18487
#	32622
#	52442
#	68264
#	83551
#	102966
#	122625
#	144267
#	161516
#
# Disc length: 2380 seconds
#
# Revision: 1
# Processed by: cddbd v1.5.1PL0 Copyright (c) Steve Scherf et al.
# Submitted via: audiograbber 1.83.01
#
DISCID=78094a0a
DTITLE=Josh Rouse - Nashville
DYEAR=2004
DGENRE=Acoustic
TTITLE0=It's The Nighttime
TTITLE1=Winter In The Hamptons
TTITLE2=Streetlights
TTITLE3=Carolina
TTITLE4=Middle School Frown
TTITLE5=My Love Has Gone
TTITLE6=Saturday
TTITLE7=Sad Eyes
TTITLE8=Why Won't You Tell Me What
TTITLE9=Life
EXTD=
EXTT0=
EXTT1=
EXTT2=
EXTT3=
EXTT4=
EXTT5=
EXTT6=
EXTT7=
EXTT8=
EXTT9=
PLAYORDER=
